<mxfile host="app.diagrams.net" modified="2021-07-13T01:51:56.215Z" agent="5.0 (X11; Linux x86_64) AppleWebKit/537.36 (KHTML, like Gecko) Chrome/91.0.4472.114 Safari/537.36" etag="Kd_LdUxYCxxKR9PIIE_c" version="14.8.6" type="github" pages="2">
  <diagram id="7ADZEoCv_N2pfUkhOmF2" name="Page-1">
    <mxGraphModel dx="1138" dy="609" grid="1" gridSize="10" guides="1" tooltips="1" connect="1" arrows="1" fold="1" page="1" pageScale="1" pageWidth="1200" pageHeight="1920" math="0" shadow="0">
      <root>
        <mxCell id="0" />
        <mxCell id="1" parent="0" />
        <mxCell id="Z1E2BDlz4__jGVEe50eu-1" value="库房库存" style="shape=table;startSize=30;container=1;collapsible=1;childLayout=tableLayout;fixedRows=1;rowLines=0;fontStyle=1;align=center;resizeLast=1;" vertex="1" parent="1">
          <mxGeometry x="80" y="240" width="180" height="160" as="geometry" />
        </mxCell>
        <mxCell id="Z1E2BDlz4__jGVEe50eu-2" value="" style="shape=partialRectangle;collapsible=0;dropTarget=0;pointerEvents=0;fillColor=none;top=0;left=0;bottom=1;right=0;points=[[0,0.5],[1,0.5]];portConstraint=eastwest;" vertex="1" parent="Z1E2BDlz4__jGVEe50eu-1">
          <mxGeometry y="30" width="180" height="30" as="geometry" />
        </mxCell>
        <mxCell id="Z1E2BDlz4__jGVEe50eu-3" value="PK" style="shape=partialRectangle;connectable=0;fillColor=none;top=0;left=0;bottom=0;right=0;fontStyle=1;overflow=hidden;" vertex="1" parent="Z1E2BDlz4__jGVEe50eu-2">
          <mxGeometry width="30" height="30" as="geometry" />
        </mxCell>
        <mxCell id="Z1E2BDlz4__jGVEe50eu-4" value="库存ID" style="shape=partialRectangle;connectable=0;fillColor=none;top=0;left=0;bottom=0;right=0;align=left;spacingLeft=6;fontStyle=5;overflow=hidden;" vertex="1" parent="Z1E2BDlz4__jGVEe50eu-2">
          <mxGeometry x="30" width="150" height="30" as="geometry" />
        </mxCell>
        <mxCell id="Z1E2BDlz4__jGVEe50eu-5" value="" style="shape=partialRectangle;collapsible=0;dropTarget=0;pointerEvents=0;fillColor=none;top=0;left=0;bottom=0;right=0;points=[[0,0.5],[1,0.5]];portConstraint=eastwest;" vertex="1" parent="Z1E2BDlz4__jGVEe50eu-1">
          <mxGeometry y="60" width="180" height="30" as="geometry" />
        </mxCell>
        <mxCell id="Z1E2BDlz4__jGVEe50eu-6" value="" style="shape=partialRectangle;connectable=0;fillColor=none;top=0;left=0;bottom=0;right=0;editable=1;overflow=hidden;" vertex="1" parent="Z1E2BDlz4__jGVEe50eu-5">
          <mxGeometry width="30" height="30" as="geometry" />
        </mxCell>
        <mxCell id="Z1E2BDlz4__jGVEe50eu-7" value="Row 1" style="shape=partialRectangle;connectable=0;fillColor=none;top=0;left=0;bottom=0;right=0;align=left;spacingLeft=6;overflow=hidden;" vertex="1" parent="Z1E2BDlz4__jGVEe50eu-5">
          <mxGeometry x="30" width="150" height="30" as="geometry" />
        </mxCell>
        <mxCell id="Z1E2BDlz4__jGVEe50eu-8" value="" style="shape=partialRectangle;collapsible=0;dropTarget=0;pointerEvents=0;fillColor=none;top=0;left=0;bottom=0;right=0;points=[[0,0.5],[1,0.5]];portConstraint=eastwest;" vertex="1" parent="Z1E2BDlz4__jGVEe50eu-1">
          <mxGeometry y="90" width="180" height="30" as="geometry" />
        </mxCell>
        <mxCell id="Z1E2BDlz4__jGVEe50eu-9" value="" style="shape=partialRectangle;connectable=0;fillColor=none;top=0;left=0;bottom=0;right=0;editable=1;overflow=hidden;" vertex="1" parent="Z1E2BDlz4__jGVEe50eu-8">
          <mxGeometry width="30" height="30" as="geometry" />
        </mxCell>
        <mxCell id="Z1E2BDlz4__jGVEe50eu-10" value="Row 2" style="shape=partialRectangle;connectable=0;fillColor=none;top=0;left=0;bottom=0;right=0;align=left;spacingLeft=6;overflow=hidden;" vertex="1" parent="Z1E2BDlz4__jGVEe50eu-8">
          <mxGeometry x="30" width="150" height="30" as="geometry" />
        </mxCell>
        <mxCell id="Z1E2BDlz4__jGVEe50eu-11" value="" style="shape=partialRectangle;collapsible=0;dropTarget=0;pointerEvents=0;fillColor=none;top=0;left=0;bottom=0;right=0;points=[[0,0.5],[1,0.5]];portConstraint=eastwest;" vertex="1" parent="Z1E2BDlz4__jGVEe50eu-1">
          <mxGeometry y="120" width="180" height="30" as="geometry" />
        </mxCell>
        <mxCell id="Z1E2BDlz4__jGVEe50eu-12" value="" style="shape=partialRectangle;connectable=0;fillColor=none;top=0;left=0;bottom=0;right=0;editable=1;overflow=hidden;" vertex="1" parent="Z1E2BDlz4__jGVEe50eu-11">
          <mxGeometry width="30" height="30" as="geometry" />
        </mxCell>
        <mxCell id="Z1E2BDlz4__jGVEe50eu-13" value="Row 3" style="shape=partialRectangle;connectable=0;fillColor=none;top=0;left=0;bottom=0;right=0;align=left;spacingLeft=6;overflow=hidden;" vertex="1" parent="Z1E2BDlz4__jGVEe50eu-11">
          <mxGeometry x="30" width="150" height="30" as="geometry" />
        </mxCell>
        <mxCell id="Z1E2BDlz4__jGVEe50eu-14" value="库房出库单" style="shape=table;startSize=30;container=1;collapsible=1;childLayout=tableLayout;fixedRows=1;rowLines=0;fontStyle=1;align=center;resizeLast=1;" vertex="1" parent="1">
          <mxGeometry x="400" y="240" width="180" height="160" as="geometry" />
        </mxCell>
        <mxCell id="Z1E2BDlz4__jGVEe50eu-15" value="" style="shape=partialRectangle;collapsible=0;dropTarget=0;pointerEvents=0;fillColor=none;top=0;left=0;bottom=1;right=0;points=[[0,0.5],[1,0.5]];portConstraint=eastwest;" vertex="1" parent="Z1E2BDlz4__jGVEe50eu-14">
          <mxGeometry y="30" width="180" height="30" as="geometry" />
        </mxCell>
        <mxCell id="Z1E2BDlz4__jGVEe50eu-16" value="PK" style="shape=partialRectangle;connectable=0;fillColor=none;top=0;left=0;bottom=0;right=0;fontStyle=1;overflow=hidden;" vertex="1" parent="Z1E2BDlz4__jGVEe50eu-15">
          <mxGeometry width="30" height="30" as="geometry" />
        </mxCell>
        <mxCell id="Z1E2BDlz4__jGVEe50eu-17" value="库房出库单ID" style="shape=partialRectangle;connectable=0;fillColor=none;top=0;left=0;bottom=0;right=0;align=left;spacingLeft=6;fontStyle=5;overflow=hidden;" vertex="1" parent="Z1E2BDlz4__jGVEe50eu-15">
          <mxGeometry x="30" width="150" height="30" as="geometry" />
        </mxCell>
        <mxCell id="Z1E2BDlz4__jGVEe50eu-18" value="" style="shape=partialRectangle;collapsible=0;dropTarget=0;pointerEvents=0;fillColor=none;top=0;left=0;bottom=0;right=0;points=[[0,0.5],[1,0.5]];portConstraint=eastwest;" vertex="1" parent="Z1E2BDlz4__jGVEe50eu-14">
          <mxGeometry y="60" width="180" height="30" as="geometry" />
        </mxCell>
        <mxCell id="Z1E2BDlz4__jGVEe50eu-19" value="" style="shape=partialRectangle;connectable=0;fillColor=none;top=0;left=0;bottom=0;right=0;editable=1;overflow=hidden;" vertex="1" parent="Z1E2BDlz4__jGVEe50eu-18">
          <mxGeometry width="30" height="30" as="geometry" />
        </mxCell>
        <mxCell id="Z1E2BDlz4__jGVEe50eu-20" value="关联ID" style="shape=partialRectangle;connectable=0;fillColor=none;top=0;left=0;bottom=0;right=0;align=left;spacingLeft=6;overflow=hidden;" vertex="1" parent="Z1E2BDlz4__jGVEe50eu-18">
          <mxGeometry x="30" width="150" height="30" as="geometry" />
        </mxCell>
        <mxCell id="Z1E2BDlz4__jGVEe50eu-21" value="" style="shape=partialRectangle;collapsible=0;dropTarget=0;pointerEvents=0;fillColor=none;top=0;left=0;bottom=0;right=0;points=[[0,0.5],[1,0.5]];portConstraint=eastwest;" vertex="1" parent="Z1E2BDlz4__jGVEe50eu-14">
          <mxGeometry y="90" width="180" height="30" as="geometry" />
        </mxCell>
        <mxCell id="Z1E2BDlz4__jGVEe50eu-22" value="" style="shape=partialRectangle;connectable=0;fillColor=none;top=0;left=0;bottom=0;right=0;editable=1;overflow=hidden;" vertex="1" parent="Z1E2BDlz4__jGVEe50eu-21">
          <mxGeometry width="30" height="30" as="geometry" />
        </mxCell>
        <mxCell id="Z1E2BDlz4__jGVEe50eu-23" value="Row 2" style="shape=partialRectangle;connectable=0;fillColor=none;top=0;left=0;bottom=0;right=0;align=left;spacingLeft=6;overflow=hidden;" vertex="1" parent="Z1E2BDlz4__jGVEe50eu-21">
          <mxGeometry x="30" width="150" height="30" as="geometry" />
        </mxCell>
        <mxCell id="Z1E2BDlz4__jGVEe50eu-24" value="" style="shape=partialRectangle;collapsible=0;dropTarget=0;pointerEvents=0;fillColor=none;top=0;left=0;bottom=0;right=0;points=[[0,0.5],[1,0.5]];portConstraint=eastwest;" vertex="1" parent="Z1E2BDlz4__jGVEe50eu-14">
          <mxGeometry y="120" width="180" height="30" as="geometry" />
        </mxCell>
        <mxCell id="Z1E2BDlz4__jGVEe50eu-25" value="" style="shape=partialRectangle;connectable=0;fillColor=none;top=0;left=0;bottom=0;right=0;editable=1;overflow=hidden;" vertex="1" parent="Z1E2BDlz4__jGVEe50eu-24">
          <mxGeometry width="30" height="30" as="geometry" />
        </mxCell>
        <mxCell id="Z1E2BDlz4__jGVEe50eu-26" value="Row 3" style="shape=partialRectangle;connectable=0;fillColor=none;top=0;left=0;bottom=0;right=0;align=left;spacingLeft=6;overflow=hidden;" vertex="1" parent="Z1E2BDlz4__jGVEe50eu-24">
          <mxGeometry x="30" width="150" height="30" as="geometry" />
        </mxCell>
        <mxCell id="Z1E2BDlz4__jGVEe50eu-27" value="库房出库明细" style="shape=table;startSize=30;container=1;collapsible=1;childLayout=tableLayout;fixedRows=1;rowLines=0;fontStyle=1;align=center;resizeLast=1;" vertex="1" parent="1">
          <mxGeometry x="400" y="40" width="180" height="160" as="geometry" />
        </mxCell>
        <mxCell id="Z1E2BDlz4__jGVEe50eu-28" value="" style="shape=partialRectangle;collapsible=0;dropTarget=0;pointerEvents=0;fillColor=none;top=0;left=0;bottom=1;right=0;points=[[0,0.5],[1,0.5]];portConstraint=eastwest;" vertex="1" parent="Z1E2BDlz4__jGVEe50eu-27">
          <mxGeometry y="30" width="180" height="30" as="geometry" />
        </mxCell>
        <mxCell id="Z1E2BDlz4__jGVEe50eu-29" value="PK" style="shape=partialRectangle;connectable=0;fillColor=none;top=0;left=0;bottom=0;right=0;fontStyle=1;overflow=hidden;" vertex="1" parent="Z1E2BDlz4__jGVEe50eu-28">
          <mxGeometry width="30" height="30" as="geometry" />
        </mxCell>
        <mxCell id="Z1E2BDlz4__jGVEe50eu-30" value="库房出库单明细ID" style="shape=partialRectangle;connectable=0;fillColor=none;top=0;left=0;bottom=0;right=0;align=left;spacingLeft=6;fontStyle=5;overflow=hidden;" vertex="1" parent="Z1E2BDlz4__jGVEe50eu-28">
          <mxGeometry x="30" width="150" height="30" as="geometry" />
        </mxCell>
        <mxCell id="Z1E2BDlz4__jGVEe50eu-31" value="" style="shape=partialRectangle;collapsible=0;dropTarget=0;pointerEvents=0;fillColor=none;top=0;left=0;bottom=0;right=0;points=[[0,0.5],[1,0.5]];portConstraint=eastwest;" vertex="1" parent="Z1E2BDlz4__jGVEe50eu-27">
          <mxGeometry y="60" width="180" height="30" as="geometry" />
        </mxCell>
        <mxCell id="Z1E2BDlz4__jGVEe50eu-32" value="" style="shape=partialRectangle;connectable=0;fillColor=none;top=0;left=0;bottom=0;right=0;editable=1;overflow=hidden;" vertex="1" parent="Z1E2BDlz4__jGVEe50eu-31">
          <mxGeometry width="30" height="30" as="geometry" />
        </mxCell>
        <mxCell id="Z1E2BDlz4__jGVEe50eu-33" value="库房入库单ID" style="shape=partialRectangle;connectable=0;fillColor=none;top=0;left=0;bottom=0;right=0;align=left;spacingLeft=6;overflow=hidden;" vertex="1" parent="Z1E2BDlz4__jGVEe50eu-31">
          <mxGeometry x="30" width="150" height="30" as="geometry" />
        </mxCell>
        <mxCell id="Z1E2BDlz4__jGVEe50eu-34" value="" style="shape=partialRectangle;collapsible=0;dropTarget=0;pointerEvents=0;fillColor=none;top=0;left=0;bottom=0;right=0;points=[[0,0.5],[1,0.5]];portConstraint=eastwest;" vertex="1" parent="Z1E2BDlz4__jGVEe50eu-27">
          <mxGeometry y="90" width="180" height="30" as="geometry" />
        </mxCell>
        <mxCell id="Z1E2BDlz4__jGVEe50eu-35" value="" style="shape=partialRectangle;connectable=0;fillColor=none;top=0;left=0;bottom=0;right=0;editable=1;overflow=hidden;" vertex="1" parent="Z1E2BDlz4__jGVEe50eu-34">
          <mxGeometry width="30" height="30" as="geometry" />
        </mxCell>
        <mxCell id="Z1E2BDlz4__jGVEe50eu-36" value="库房库存ID" style="shape=partialRectangle;connectable=0;fillColor=none;top=0;left=0;bottom=0;right=0;align=left;spacingLeft=6;overflow=hidden;" vertex="1" parent="Z1E2BDlz4__jGVEe50eu-34">
          <mxGeometry x="30" width="150" height="30" as="geometry" />
        </mxCell>
        <mxCell id="Z1E2BDlz4__jGVEe50eu-37" value="" style="shape=partialRectangle;collapsible=0;dropTarget=0;pointerEvents=0;fillColor=none;top=0;left=0;bottom=0;right=0;points=[[0,0.5],[1,0.5]];portConstraint=eastwest;" vertex="1" parent="Z1E2BDlz4__jGVEe50eu-27">
          <mxGeometry y="120" width="180" height="30" as="geometry" />
        </mxCell>
        <mxCell id="Z1E2BDlz4__jGVEe50eu-38" value="" style="shape=partialRectangle;connectable=0;fillColor=none;top=0;left=0;bottom=0;right=0;editable=1;overflow=hidden;" vertex="1" parent="Z1E2BDlz4__jGVEe50eu-37">
          <mxGeometry width="30" height="30" as="geometry" />
        </mxCell>
        <mxCell id="Z1E2BDlz4__jGVEe50eu-39" value="Row 3" style="shape=partialRectangle;connectable=0;fillColor=none;top=0;left=0;bottom=0;right=0;align=left;spacingLeft=6;overflow=hidden;" vertex="1" parent="Z1E2BDlz4__jGVEe50eu-37">
          <mxGeometry x="30" width="150" height="30" as="geometry" />
        </mxCell>
        <mxCell id="Z1E2BDlz4__jGVEe50eu-40" value="药房入库单" style="shape=table;startSize=30;container=1;collapsible=1;childLayout=tableLayout;fixedRows=1;rowLines=0;fontStyle=1;align=center;resizeLast=1;" vertex="1" parent="1">
          <mxGeometry x="80" y="440" width="180" height="160" as="geometry" />
        </mxCell>
        <mxCell id="Z1E2BDlz4__jGVEe50eu-41" value="" style="shape=partialRectangle;collapsible=0;dropTarget=0;pointerEvents=0;fillColor=none;top=0;left=0;bottom=1;right=0;points=[[0,0.5],[1,0.5]];portConstraint=eastwest;" vertex="1" parent="Z1E2BDlz4__jGVEe50eu-40">
          <mxGeometry y="30" width="180" height="30" as="geometry" />
        </mxCell>
        <mxCell id="Z1E2BDlz4__jGVEe50eu-42" value="PK" style="shape=partialRectangle;connectable=0;fillColor=none;top=0;left=0;bottom=0;right=0;fontStyle=1;overflow=hidden;" vertex="1" parent="Z1E2BDlz4__jGVEe50eu-41">
          <mxGeometry width="30" height="30" as="geometry" />
        </mxCell>
        <mxCell id="Z1E2BDlz4__jGVEe50eu-43" value="药房入库单ID" style="shape=partialRectangle;connectable=0;fillColor=none;top=0;left=0;bottom=0;right=0;align=left;spacingLeft=6;fontStyle=5;overflow=hidden;" vertex="1" parent="Z1E2BDlz4__jGVEe50eu-41">
          <mxGeometry x="30" width="150" height="30" as="geometry" />
        </mxCell>
        <mxCell id="Z1E2BDlz4__jGVEe50eu-44" value="" style="shape=partialRectangle;collapsible=0;dropTarget=0;pointerEvents=0;fillColor=none;top=0;left=0;bottom=0;right=0;points=[[0,0.5],[1,0.5]];portConstraint=eastwest;" vertex="1" parent="Z1E2BDlz4__jGVEe50eu-40">
          <mxGeometry y="60" width="180" height="30" as="geometry" />
        </mxCell>
        <mxCell id="Z1E2BDlz4__jGVEe50eu-45" value="" style="shape=partialRectangle;connectable=0;fillColor=none;top=0;left=0;bottom=0;right=0;editable=1;overflow=hidden;" vertex="1" parent="Z1E2BDlz4__jGVEe50eu-44">
          <mxGeometry width="30" height="30" as="geometry" />
        </mxCell>
        <mxCell id="Z1E2BDlz4__jGVEe50eu-46" value="Row 1" style="shape=partialRectangle;connectable=0;fillColor=none;top=0;left=0;bottom=0;right=0;align=left;spacingLeft=6;overflow=hidden;" vertex="1" parent="Z1E2BDlz4__jGVEe50eu-44">
          <mxGeometry x="30" width="150" height="30" as="geometry" />
        </mxCell>
        <mxCell id="Z1E2BDlz4__jGVEe50eu-47" value="" style="shape=partialRectangle;collapsible=0;dropTarget=0;pointerEvents=0;fillColor=none;top=0;left=0;bottom=0;right=0;points=[[0,0.5],[1,0.5]];portConstraint=eastwest;" vertex="1" parent="Z1E2BDlz4__jGVEe50eu-40">
          <mxGeometry y="90" width="180" height="30" as="geometry" />
        </mxCell>
        <mxCell id="Z1E2BDlz4__jGVEe50eu-48" value="" style="shape=partialRectangle;connectable=0;fillColor=none;top=0;left=0;bottom=0;right=0;editable=1;overflow=hidden;" vertex="1" parent="Z1E2BDlz4__jGVEe50eu-47">
          <mxGeometry width="30" height="30" as="geometry" />
        </mxCell>
        <mxCell id="Z1E2BDlz4__jGVEe50eu-49" value="Row 2" style="shape=partialRectangle;connectable=0;fillColor=none;top=0;left=0;bottom=0;right=0;align=left;spacingLeft=6;overflow=hidden;" vertex="1" parent="Z1E2BDlz4__jGVEe50eu-47">
          <mxGeometry x="30" width="150" height="30" as="geometry" />
        </mxCell>
        <mxCell id="Z1E2BDlz4__jGVEe50eu-50" value="" style="shape=partialRectangle;collapsible=0;dropTarget=0;pointerEvents=0;fillColor=none;top=0;left=0;bottom=0;right=0;points=[[0,0.5],[1,0.5]];portConstraint=eastwest;" vertex="1" parent="Z1E2BDlz4__jGVEe50eu-40">
          <mxGeometry y="120" width="180" height="30" as="geometry" />
        </mxCell>
        <mxCell id="Z1E2BDlz4__jGVEe50eu-51" value="" style="shape=partialRectangle;connectable=0;fillColor=none;top=0;left=0;bottom=0;right=0;editable=1;overflow=hidden;" vertex="1" parent="Z1E2BDlz4__jGVEe50eu-50">
          <mxGeometry width="30" height="30" as="geometry" />
        </mxCell>
        <mxCell id="Z1E2BDlz4__jGVEe50eu-52" value="Row 3" style="shape=partialRectangle;connectable=0;fillColor=none;top=0;left=0;bottom=0;right=0;align=left;spacingLeft=6;overflow=hidden;" vertex="1" parent="Z1E2BDlz4__jGVEe50eu-50">
          <mxGeometry x="30" width="150" height="30" as="geometry" />
        </mxCell>
        <mxCell id="Z1E2BDlz4__jGVEe50eu-53" value="库房盘点单" style="shape=table;startSize=30;container=1;collapsible=1;childLayout=tableLayout;fixedRows=1;rowLines=0;fontStyle=1;align=center;resizeLast=1;" vertex="1" parent="1">
          <mxGeometry x="400" y="440" width="180" height="160" as="geometry" />
        </mxCell>
        <mxCell id="Z1E2BDlz4__jGVEe50eu-54" value="" style="shape=partialRectangle;collapsible=0;dropTarget=0;pointerEvents=0;fillColor=none;top=0;left=0;bottom=1;right=0;points=[[0,0.5],[1,0.5]];portConstraint=eastwest;" vertex="1" parent="Z1E2BDlz4__jGVEe50eu-53">
          <mxGeometry y="30" width="180" height="30" as="geometry" />
        </mxCell>
        <mxCell id="Z1E2BDlz4__jGVEe50eu-55" value="PK" style="shape=partialRectangle;connectable=0;fillColor=none;top=0;left=0;bottom=0;right=0;fontStyle=1;overflow=hidden;" vertex="1" parent="Z1E2BDlz4__jGVEe50eu-54">
          <mxGeometry width="30" height="30" as="geometry" />
        </mxCell>
        <mxCell id="Z1E2BDlz4__jGVEe50eu-56" value="库房盘点单ID" style="shape=partialRectangle;connectable=0;fillColor=none;top=0;left=0;bottom=0;right=0;align=left;spacingLeft=6;fontStyle=5;overflow=hidden;" vertex="1" parent="Z1E2BDlz4__jGVEe50eu-54">
          <mxGeometry x="30" width="150" height="30" as="geometry" />
        </mxCell>
        <mxCell id="Z1E2BDlz4__jGVEe50eu-57" value="" style="shape=partialRectangle;collapsible=0;dropTarget=0;pointerEvents=0;fillColor=none;top=0;left=0;bottom=0;right=0;points=[[0,0.5],[1,0.5]];portConstraint=eastwest;" vertex="1" parent="Z1E2BDlz4__jGVEe50eu-53">
          <mxGeometry y="60" width="180" height="30" as="geometry" />
        </mxCell>
        <mxCell id="Z1E2BDlz4__jGVEe50eu-58" value="" style="shape=partialRectangle;connectable=0;fillColor=none;top=0;left=0;bottom=0;right=0;editable=1;overflow=hidden;" vertex="1" parent="Z1E2BDlz4__jGVEe50eu-57">
          <mxGeometry width="30" height="30" as="geometry" />
        </mxCell>
        <mxCell id="Z1E2BDlz4__jGVEe50eu-59" value="Row 1" style="shape=partialRectangle;connectable=0;fillColor=none;top=0;left=0;bottom=0;right=0;align=left;spacingLeft=6;overflow=hidden;" vertex="1" parent="Z1E2BDlz4__jGVEe50eu-57">
          <mxGeometry x="30" width="150" height="30" as="geometry" />
        </mxCell>
        <mxCell id="Z1E2BDlz4__jGVEe50eu-60" value="" style="shape=partialRectangle;collapsible=0;dropTarget=0;pointerEvents=0;fillColor=none;top=0;left=0;bottom=0;right=0;points=[[0,0.5],[1,0.5]];portConstraint=eastwest;" vertex="1" parent="Z1E2BDlz4__jGVEe50eu-53">
          <mxGeometry y="90" width="180" height="30" as="geometry" />
        </mxCell>
        <mxCell id="Z1E2BDlz4__jGVEe50eu-61" value="" style="shape=partialRectangle;connectable=0;fillColor=none;top=0;left=0;bottom=0;right=0;editable=1;overflow=hidden;" vertex="1" parent="Z1E2BDlz4__jGVEe50eu-60">
          <mxGeometry width="30" height="30" as="geometry" />
        </mxCell>
        <mxCell id="Z1E2BDlz4__jGVEe50eu-62" value="Row 2" style="shape=partialRectangle;connectable=0;fillColor=none;top=0;left=0;bottom=0;right=0;align=left;spacingLeft=6;overflow=hidden;" vertex="1" parent="Z1E2BDlz4__jGVEe50eu-60">
          <mxGeometry x="30" width="150" height="30" as="geometry" />
        </mxCell>
        <mxCell id="Z1E2BDlz4__jGVEe50eu-63" value="" style="shape=partialRectangle;collapsible=0;dropTarget=0;pointerEvents=0;fillColor=none;top=0;left=0;bottom=0;right=0;points=[[0,0.5],[1,0.5]];portConstraint=eastwest;" vertex="1" parent="Z1E2BDlz4__jGVEe50eu-53">
          <mxGeometry y="120" width="180" height="30" as="geometry" />
        </mxCell>
        <mxCell id="Z1E2BDlz4__jGVEe50eu-64" value="" style="shape=partialRectangle;connectable=0;fillColor=none;top=0;left=0;bottom=0;right=0;editable=1;overflow=hidden;" vertex="1" parent="Z1E2BDlz4__jGVEe50eu-63">
          <mxGeometry width="30" height="30" as="geometry" />
        </mxCell>
        <mxCell id="Z1E2BDlz4__jGVEe50eu-65" value="Row 3" style="shape=partialRectangle;connectable=0;fillColor=none;top=0;left=0;bottom=0;right=0;align=left;spacingLeft=6;overflow=hidden;" vertex="1" parent="Z1E2BDlz4__jGVEe50eu-63">
          <mxGeometry x="30" width="150" height="30" as="geometry" />
        </mxCell>
        <mxCell id="Z1E2BDlz4__jGVEe50eu-66" value="库房科室借调单" style="shape=table;startSize=30;container=1;collapsible=1;childLayout=tableLayout;fixedRows=1;rowLines=0;fontStyle=1;align=center;resizeLast=1;" vertex="1" parent="1">
          <mxGeometry x="720" y="440" width="180" height="160" as="geometry" />
        </mxCell>
        <mxCell id="Z1E2BDlz4__jGVEe50eu-67" value="" style="shape=partialRectangle;collapsible=0;dropTarget=0;pointerEvents=0;fillColor=none;top=0;left=0;bottom=1;right=0;points=[[0,0.5],[1,0.5]];portConstraint=eastwest;" vertex="1" parent="Z1E2BDlz4__jGVEe50eu-66">
          <mxGeometry y="30" width="180" height="30" as="geometry" />
        </mxCell>
        <mxCell id="Z1E2BDlz4__jGVEe50eu-68" value="PK" style="shape=partialRectangle;connectable=0;fillColor=none;top=0;left=0;bottom=0;right=0;fontStyle=1;overflow=hidden;" vertex="1" parent="Z1E2BDlz4__jGVEe50eu-67">
          <mxGeometry width="30" height="30" as="geometry" />
        </mxCell>
        <mxCell id="Z1E2BDlz4__jGVEe50eu-69" value="库房科室借调单ID" style="shape=partialRectangle;connectable=0;fillColor=none;top=0;left=0;bottom=0;right=0;align=left;spacingLeft=6;fontStyle=5;overflow=hidden;" vertex="1" parent="Z1E2BDlz4__jGVEe50eu-67">
          <mxGeometry x="30" width="150" height="30" as="geometry" />
        </mxCell>
        <mxCell id="Z1E2BDlz4__jGVEe50eu-70" value="" style="shape=partialRectangle;collapsible=0;dropTarget=0;pointerEvents=0;fillColor=none;top=0;left=0;bottom=0;right=0;points=[[0,0.5],[1,0.5]];portConstraint=eastwest;" vertex="1" parent="Z1E2BDlz4__jGVEe50eu-66">
          <mxGeometry y="60" width="180" height="30" as="geometry" />
        </mxCell>
        <mxCell id="Z1E2BDlz4__jGVEe50eu-71" value="" style="shape=partialRectangle;connectable=0;fillColor=none;top=0;left=0;bottom=0;right=0;editable=1;overflow=hidden;" vertex="1" parent="Z1E2BDlz4__jGVEe50eu-70">
          <mxGeometry width="30" height="30" as="geometry" />
        </mxCell>
        <mxCell id="Z1E2BDlz4__jGVEe50eu-72" value="Row 1" style="shape=partialRectangle;connectable=0;fillColor=none;top=0;left=0;bottom=0;right=0;align=left;spacingLeft=6;overflow=hidden;" vertex="1" parent="Z1E2BDlz4__jGVEe50eu-70">
          <mxGeometry x="30" width="150" height="30" as="geometry" />
        </mxCell>
        <mxCell id="Z1E2BDlz4__jGVEe50eu-73" value="" style="shape=partialRectangle;collapsible=0;dropTarget=0;pointerEvents=0;fillColor=none;top=0;left=0;bottom=0;right=0;points=[[0,0.5],[1,0.5]];portConstraint=eastwest;" vertex="1" parent="Z1E2BDlz4__jGVEe50eu-66">
          <mxGeometry y="90" width="180" height="30" as="geometry" />
        </mxCell>
        <mxCell id="Z1E2BDlz4__jGVEe50eu-74" value="" style="shape=partialRectangle;connectable=0;fillColor=none;top=0;left=0;bottom=0;right=0;editable=1;overflow=hidden;" vertex="1" parent="Z1E2BDlz4__jGVEe50eu-73">
          <mxGeometry width="30" height="30" as="geometry" />
        </mxCell>
        <mxCell id="Z1E2BDlz4__jGVEe50eu-75" value="Row 2" style="shape=partialRectangle;connectable=0;fillColor=none;top=0;left=0;bottom=0;right=0;align=left;spacingLeft=6;overflow=hidden;" vertex="1" parent="Z1E2BDlz4__jGVEe50eu-73">
          <mxGeometry x="30" width="150" height="30" as="geometry" />
        </mxCell>
        <mxCell id="Z1E2BDlz4__jGVEe50eu-76" value="" style="shape=partialRectangle;collapsible=0;dropTarget=0;pointerEvents=0;fillColor=none;top=0;left=0;bottom=0;right=0;points=[[0,0.5],[1,0.5]];portConstraint=eastwest;" vertex="1" parent="Z1E2BDlz4__jGVEe50eu-66">
          <mxGeometry y="120" width="180" height="30" as="geometry" />
        </mxCell>
        <mxCell id="Z1E2BDlz4__jGVEe50eu-77" value="" style="shape=partialRectangle;connectable=0;fillColor=none;top=0;left=0;bottom=0;right=0;editable=1;overflow=hidden;" vertex="1" parent="Z1E2BDlz4__jGVEe50eu-76">
          <mxGeometry width="30" height="30" as="geometry" />
        </mxCell>
        <mxCell id="Z1E2BDlz4__jGVEe50eu-78" value="Row 3" style="shape=partialRectangle;connectable=0;fillColor=none;top=0;left=0;bottom=0;right=0;align=left;spacingLeft=6;overflow=hidden;" vertex="1" parent="Z1E2BDlz4__jGVEe50eu-76">
          <mxGeometry x="30" width="150" height="30" as="geometry" />
        </mxCell>
        <mxCell id="Z1E2BDlz4__jGVEe50eu-79" value="" style="edgeStyle=elbowEdgeStyle;fontSize=12;html=1;endArrow=ERmandOne;exitX=1;exitY=0.5;exitDx=0;exitDy=0;" edge="1" parent="1" source="Z1E2BDlz4__jGVEe50eu-41">
          <mxGeometry width="100" height="100" relative="1" as="geometry">
            <mxPoint x="300" y="410" as="sourcePoint" />
            <mxPoint x="400" y="310" as="targetPoint" />
          </mxGeometry>
        </mxCell>
        <mxCell id="Z1E2BDlz4__jGVEe50eu-80" value="" style="edgeStyle=elbowEdgeStyle;fontSize=12;html=1;endArrow=ERmandOne;exitX=0;exitY=0.5;exitDx=0;exitDy=0;" edge="1" parent="1" source="Z1E2BDlz4__jGVEe50eu-54">
          <mxGeometry width="100" height="100" relative="1" as="geometry">
            <mxPoint x="270" y="605" as="sourcePoint" />
            <mxPoint x="400" y="310" as="targetPoint" />
            <Array as="points">
              <mxPoint x="360" y="440" />
            </Array>
          </mxGeometry>
        </mxCell>
        <mxCell id="Z1E2BDlz4__jGVEe50eu-81" value="" style="edgeStyle=elbowEdgeStyle;fontSize=12;html=1;endArrow=ERmandOne;exitX=0;exitY=0.5;exitDx=0;exitDy=0;" edge="1" parent="1" source="Z1E2BDlz4__jGVEe50eu-67">
          <mxGeometry width="100" height="100" relative="1" as="geometry">
            <mxPoint x="410" y="575" as="sourcePoint" />
            <mxPoint x="580" y="310" as="targetPoint" />
            <Array as="points">
              <mxPoint x="680" y="440" />
            </Array>
          </mxGeometry>
        </mxCell>
        <mxCell id="Z1E2BDlz4__jGVEe50eu-82" value="" style="edgeStyle=orthogonalEdgeStyle;fontSize=12;html=1;endArrow=ERmandOne;exitX=1;exitY=0.5;exitDx=0;exitDy=0;entryX=0;entryY=0.5;entryDx=0;entryDy=0;elbow=vertical;" edge="1" parent="1" source="Z1E2BDlz4__jGVEe50eu-2" target="Z1E2BDlz4__jGVEe50eu-34">
          <mxGeometry width="100" height="100" relative="1" as="geometry">
            <mxPoint x="270" y="575" as="sourcePoint" />
            <mxPoint x="410" y="320" as="targetPoint" />
          </mxGeometry>
        </mxCell>
        <mxCell id="Z1E2BDlz4__jGVEe50eu-83" value="" style="edgeStyle=elbowEdgeStyle;fontSize=12;html=1;endArrow=ERmandOne;" edge="1" parent="1" source="Z1E2BDlz4__jGVEe50eu-15" target="Z1E2BDlz4__jGVEe50eu-31">
          <mxGeometry width="100" height="100" relative="1" as="geometry">
            <mxPoint x="730" y="575" as="sourcePoint" />
            <mxPoint x="590" y="320" as="targetPoint" />
            <Array as="points">
              <mxPoint x="690" y="450" />
            </Array>
          </mxGeometry>
        </mxCell>
      </root>
    </mxGraphModel>
  </diagram>
  <diagram id="pkz7lKdWta_ly4MIBGtC" name="Page-2">
    <mxGraphModel dx="1138" dy="609" grid="1" gridSize="10" guides="1" tooltips="1" connect="1" arrows="1" fold="1" page="1" pageScale="1" pageWidth="1200" pageHeight="1920" math="0" shadow="0">
      <root>
        <mxCell id="3CrtiPzhj7lUjEQuj1Ek-0" />
        <mxCell id="3CrtiPzhj7lUjEQuj1Ek-1" parent="3CrtiPzhj7lUjEQuj1Ek-0" />
        <mxCell id="3CrtiPzhj7lUjEQuj1Ek-2" value="库房库存" style="shape=table;startSize=30;container=1;collapsible=1;childLayout=tableLayout;fixedRows=1;rowLines=0;fontStyle=1;align=center;resizeLast=1;" vertex="1" parent="3CrtiPzhj7lUjEQuj1Ek-1">
          <mxGeometry x="80" y="240" width="180" height="160" as="geometry" />
        </mxCell>
        <mxCell id="3CrtiPzhj7lUjEQuj1Ek-3" value="" style="shape=partialRectangle;collapsible=0;dropTarget=0;pointerEvents=0;fillColor=none;top=0;left=0;bottom=1;right=0;points=[[0,0.5],[1,0.5]];portConstraint=eastwest;" vertex="1" parent="3CrtiPzhj7lUjEQuj1Ek-2">
          <mxGeometry y="30" width="180" height="30" as="geometry" />
        </mxCell>
        <mxCell id="3CrtiPzhj7lUjEQuj1Ek-4" value="PK" style="shape=partialRectangle;connectable=0;fillColor=none;top=0;left=0;bottom=0;right=0;fontStyle=1;overflow=hidden;" vertex="1" parent="3CrtiPzhj7lUjEQuj1Ek-3">
          <mxGeometry width="30" height="30" as="geometry" />
        </mxCell>
        <mxCell id="3CrtiPzhj7lUjEQuj1Ek-5" value="库存ID" style="shape=partialRectangle;connectable=0;fillColor=none;top=0;left=0;bottom=0;right=0;align=left;spacingLeft=6;fontStyle=5;overflow=hidden;" vertex="1" parent="3CrtiPzhj7lUjEQuj1Ek-3">
          <mxGeometry x="30" width="150" height="30" as="geometry" />
        </mxCell>
        <mxCell id="3CrtiPzhj7lUjEQuj1Ek-6" value="" style="shape=partialRectangle;collapsible=0;dropTarget=0;pointerEvents=0;fillColor=none;top=0;left=0;bottom=0;right=0;points=[[0,0.5],[1,0.5]];portConstraint=eastwest;" vertex="1" parent="3CrtiPzhj7lUjEQuj1Ek-2">
          <mxGeometry y="60" width="180" height="30" as="geometry" />
        </mxCell>
        <mxCell id="3CrtiPzhj7lUjEQuj1Ek-7" value="" style="shape=partialRectangle;connectable=0;fillColor=none;top=0;left=0;bottom=0;right=0;editable=1;overflow=hidden;" vertex="1" parent="3CrtiPzhj7lUjEQuj1Ek-6">
          <mxGeometry width="30" height="30" as="geometry" />
        </mxCell>
        <mxCell id="3CrtiPzhj7lUjEQuj1Ek-8" value="Row 1" style="shape=partialRectangle;connectable=0;fillColor=none;top=0;left=0;bottom=0;right=0;align=left;spacingLeft=6;overflow=hidden;" vertex="1" parent="3CrtiPzhj7lUjEQuj1Ek-6">
          <mxGeometry x="30" width="150" height="30" as="geometry" />
        </mxCell>
        <mxCell id="3CrtiPzhj7lUjEQuj1Ek-9" value="" style="shape=partialRectangle;collapsible=0;dropTarget=0;pointerEvents=0;fillColor=none;top=0;left=0;bottom=0;right=0;points=[[0,0.5],[1,0.5]];portConstraint=eastwest;" vertex="1" parent="3CrtiPzhj7lUjEQuj1Ek-2">
          <mxGeometry y="90" width="180" height="30" as="geometry" />
        </mxCell>
        <mxCell id="3CrtiPzhj7lUjEQuj1Ek-10" value="" style="shape=partialRectangle;connectable=0;fillColor=none;top=0;left=0;bottom=0;right=0;editable=1;overflow=hidden;" vertex="1" parent="3CrtiPzhj7lUjEQuj1Ek-9">
          <mxGeometry width="30" height="30" as="geometry" />
        </mxCell>
        <mxCell id="3CrtiPzhj7lUjEQuj1Ek-11" value="Row 2" style="shape=partialRectangle;connectable=0;fillColor=none;top=0;left=0;bottom=0;right=0;align=left;spacingLeft=6;overflow=hidden;" vertex="1" parent="3CrtiPzhj7lUjEQuj1Ek-9">
          <mxGeometry x="30" width="150" height="30" as="geometry" />
        </mxCell>
        <mxCell id="3CrtiPzhj7lUjEQuj1Ek-12" value="" style="shape=partialRectangle;collapsible=0;dropTarget=0;pointerEvents=0;fillColor=none;top=0;left=0;bottom=0;right=0;points=[[0,0.5],[1,0.5]];portConstraint=eastwest;" vertex="1" parent="3CrtiPzhj7lUjEQuj1Ek-2">
          <mxGeometry y="120" width="180" height="30" as="geometry" />
        </mxCell>
        <mxCell id="3CrtiPzhj7lUjEQuj1Ek-13" value="" style="shape=partialRectangle;connectable=0;fillColor=none;top=0;left=0;bottom=0;right=0;editable=1;overflow=hidden;" vertex="1" parent="3CrtiPzhj7lUjEQuj1Ek-12">
          <mxGeometry width="30" height="30" as="geometry" />
        </mxCell>
        <mxCell id="3CrtiPzhj7lUjEQuj1Ek-14" value="Row 3" style="shape=partialRectangle;connectable=0;fillColor=none;top=0;left=0;bottom=0;right=0;align=left;spacingLeft=6;overflow=hidden;" vertex="1" parent="3CrtiPzhj7lUjEQuj1Ek-12">
          <mxGeometry x="30" width="150" height="30" as="geometry" />
        </mxCell>
        <mxCell id="3CrtiPzhj7lUjEQuj1Ek-15" value="库房入库单" style="shape=table;startSize=30;container=1;collapsible=1;childLayout=tableLayout;fixedRows=1;rowLines=0;fontStyle=1;align=center;resizeLast=1;" vertex="1" parent="3CrtiPzhj7lUjEQuj1Ek-1">
          <mxGeometry x="400" y="240" width="180" height="160" as="geometry" />
        </mxCell>
        <mxCell id="3CrtiPzhj7lUjEQuj1Ek-16" value="" style="shape=partialRectangle;collapsible=0;dropTarget=0;pointerEvents=0;fillColor=none;top=0;left=0;bottom=1;right=0;points=[[0,0.5],[1,0.5]];portConstraint=eastwest;" vertex="1" parent="3CrtiPzhj7lUjEQuj1Ek-15">
          <mxGeometry y="30" width="180" height="30" as="geometry" />
        </mxCell>
        <mxCell id="3CrtiPzhj7lUjEQuj1Ek-17" value="PK" style="shape=partialRectangle;connectable=0;fillColor=none;top=0;left=0;bottom=0;right=0;fontStyle=1;overflow=hidden;" vertex="1" parent="3CrtiPzhj7lUjEQuj1Ek-16">
          <mxGeometry width="30" height="30" as="geometry" />
        </mxCell>
        <mxCell id="3CrtiPzhj7lUjEQuj1Ek-18" value="库房入库单ID" style="shape=partialRectangle;connectable=0;fillColor=none;top=0;left=0;bottom=0;right=0;align=left;spacingLeft=6;fontStyle=5;overflow=hidden;" vertex="1" parent="3CrtiPzhj7lUjEQuj1Ek-16">
          <mxGeometry x="30" width="150" height="30" as="geometry" />
        </mxCell>
        <mxCell id="3CrtiPzhj7lUjEQuj1Ek-19" value="" style="shape=partialRectangle;collapsible=0;dropTarget=0;pointerEvents=0;fillColor=none;top=0;left=0;bottom=0;right=0;points=[[0,0.5],[1,0.5]];portConstraint=eastwest;" vertex="1" parent="3CrtiPzhj7lUjEQuj1Ek-15">
          <mxGeometry y="60" width="180" height="30" as="geometry" />
        </mxCell>
        <mxCell id="3CrtiPzhj7lUjEQuj1Ek-20" value="" style="shape=partialRectangle;connectable=0;fillColor=none;top=0;left=0;bottom=0;right=0;editable=1;overflow=hidden;" vertex="1" parent="3CrtiPzhj7lUjEQuj1Ek-19">
          <mxGeometry width="30" height="30" as="geometry" />
        </mxCell>
        <mxCell id="3CrtiPzhj7lUjEQuj1Ek-21" value="关联ID" style="shape=partialRectangle;connectable=0;fillColor=none;top=0;left=0;bottom=0;right=0;align=left;spacingLeft=6;overflow=hidden;" vertex="1" parent="3CrtiPzhj7lUjEQuj1Ek-19">
          <mxGeometry x="30" width="150" height="30" as="geometry" />
        </mxCell>
        <mxCell id="3CrtiPzhj7lUjEQuj1Ek-22" value="" style="shape=partialRectangle;collapsible=0;dropTarget=0;pointerEvents=0;fillColor=none;top=0;left=0;bottom=0;right=0;points=[[0,0.5],[1,0.5]];portConstraint=eastwest;" vertex="1" parent="3CrtiPzhj7lUjEQuj1Ek-15">
          <mxGeometry y="90" width="180" height="30" as="geometry" />
        </mxCell>
        <mxCell id="3CrtiPzhj7lUjEQuj1Ek-23" value="" style="shape=partialRectangle;connectable=0;fillColor=none;top=0;left=0;bottom=0;right=0;editable=1;overflow=hidden;" vertex="1" parent="3CrtiPzhj7lUjEQuj1Ek-22">
          <mxGeometry width="30" height="30" as="geometry" />
        </mxCell>
        <mxCell id="3CrtiPzhj7lUjEQuj1Ek-24" value="Row 2" style="shape=partialRectangle;connectable=0;fillColor=none;top=0;left=0;bottom=0;right=0;align=left;spacingLeft=6;overflow=hidden;" vertex="1" parent="3CrtiPzhj7lUjEQuj1Ek-22">
          <mxGeometry x="30" width="150" height="30" as="geometry" />
        </mxCell>
        <mxCell id="3CrtiPzhj7lUjEQuj1Ek-25" value="" style="shape=partialRectangle;collapsible=0;dropTarget=0;pointerEvents=0;fillColor=none;top=0;left=0;bottom=0;right=0;points=[[0,0.5],[1,0.5]];portConstraint=eastwest;" vertex="1" parent="3CrtiPzhj7lUjEQuj1Ek-15">
          <mxGeometry y="120" width="180" height="30" as="geometry" />
        </mxCell>
        <mxCell id="3CrtiPzhj7lUjEQuj1Ek-26" value="" style="shape=partialRectangle;connectable=0;fillColor=none;top=0;left=0;bottom=0;right=0;editable=1;overflow=hidden;" vertex="1" parent="3CrtiPzhj7lUjEQuj1Ek-25">
          <mxGeometry width="30" height="30" as="geometry" />
        </mxCell>
        <mxCell id="3CrtiPzhj7lUjEQuj1Ek-27" value="Row 3" style="shape=partialRectangle;connectable=0;fillColor=none;top=0;left=0;bottom=0;right=0;align=left;spacingLeft=6;overflow=hidden;" vertex="1" parent="3CrtiPzhj7lUjEQuj1Ek-25">
          <mxGeometry x="30" width="150" height="30" as="geometry" />
        </mxCell>
        <mxCell id="3CrtiPzhj7lUjEQuj1Ek-28" value="库房入库明细" style="shape=table;startSize=30;container=1;collapsible=1;childLayout=tableLayout;fixedRows=1;rowLines=0;fontStyle=1;align=center;resizeLast=1;" vertex="1" parent="3CrtiPzhj7lUjEQuj1Ek-1">
          <mxGeometry x="400" y="40" width="180" height="160" as="geometry" />
        </mxCell>
        <mxCell id="3CrtiPzhj7lUjEQuj1Ek-29" value="" style="shape=partialRectangle;collapsible=0;dropTarget=0;pointerEvents=0;fillColor=none;top=0;left=0;bottom=1;right=0;points=[[0,0.5],[1,0.5]];portConstraint=eastwest;" vertex="1" parent="3CrtiPzhj7lUjEQuj1Ek-28">
          <mxGeometry y="30" width="180" height="30" as="geometry" />
        </mxCell>
        <mxCell id="3CrtiPzhj7lUjEQuj1Ek-30" value="PK" style="shape=partialRectangle;connectable=0;fillColor=none;top=0;left=0;bottom=0;right=0;fontStyle=1;overflow=hidden;" vertex="1" parent="3CrtiPzhj7lUjEQuj1Ek-29">
          <mxGeometry width="30" height="30" as="geometry" />
        </mxCell>
        <mxCell id="3CrtiPzhj7lUjEQuj1Ek-31" value="库房入库单明细ID" style="shape=partialRectangle;connectable=0;fillColor=none;top=0;left=0;bottom=0;right=0;align=left;spacingLeft=6;fontStyle=5;overflow=hidden;" vertex="1" parent="3CrtiPzhj7lUjEQuj1Ek-29">
          <mxGeometry x="30" width="150" height="30" as="geometry" />
        </mxCell>
        <mxCell id="3CrtiPzhj7lUjEQuj1Ek-32" value="" style="shape=partialRectangle;collapsible=0;dropTarget=0;pointerEvents=0;fillColor=none;top=0;left=0;bottom=0;right=0;points=[[0,0.5],[1,0.5]];portConstraint=eastwest;" vertex="1" parent="3CrtiPzhj7lUjEQuj1Ek-28">
          <mxGeometry y="60" width="180" height="30" as="geometry" />
        </mxCell>
        <mxCell id="3CrtiPzhj7lUjEQuj1Ek-33" value="" style="shape=partialRectangle;connectable=0;fillColor=none;top=0;left=0;bottom=0;right=0;editable=1;overflow=hidden;" vertex="1" parent="3CrtiPzhj7lUjEQuj1Ek-32">
          <mxGeometry width="30" height="30" as="geometry" />
        </mxCell>
        <mxCell id="3CrtiPzhj7lUjEQuj1Ek-34" value="库房入库单ID" style="shape=partialRectangle;connectable=0;fillColor=none;top=0;left=0;bottom=0;right=0;align=left;spacingLeft=6;overflow=hidden;" vertex="1" parent="3CrtiPzhj7lUjEQuj1Ek-32">
          <mxGeometry x="30" width="150" height="30" as="geometry" />
        </mxCell>
        <mxCell id="3CrtiPzhj7lUjEQuj1Ek-35" value="" style="shape=partialRectangle;collapsible=0;dropTarget=0;pointerEvents=0;fillColor=none;top=0;left=0;bottom=0;right=0;points=[[0,0.5],[1,0.5]];portConstraint=eastwest;" vertex="1" parent="3CrtiPzhj7lUjEQuj1Ek-28">
          <mxGeometry y="90" width="180" height="30" as="geometry" />
        </mxCell>
        <mxCell id="3CrtiPzhj7lUjEQuj1Ek-36" value="" style="shape=partialRectangle;connectable=0;fillColor=none;top=0;left=0;bottom=0;right=0;editable=1;overflow=hidden;" vertex="1" parent="3CrtiPzhj7lUjEQuj1Ek-35">
          <mxGeometry width="30" height="30" as="geometry" />
        </mxCell>
        <mxCell id="3CrtiPzhj7lUjEQuj1Ek-37" value="库房库存ID" style="shape=partialRectangle;connectable=0;fillColor=none;top=0;left=0;bottom=0;right=0;align=left;spacingLeft=6;overflow=hidden;" vertex="1" parent="3CrtiPzhj7lUjEQuj1Ek-35">
          <mxGeometry x="30" width="150" height="30" as="geometry" />
        </mxCell>
        <mxCell id="3CrtiPzhj7lUjEQuj1Ek-38" value="" style="shape=partialRectangle;collapsible=0;dropTarget=0;pointerEvents=0;fillColor=none;top=0;left=0;bottom=0;right=0;points=[[0,0.5],[1,0.5]];portConstraint=eastwest;" vertex="1" parent="3CrtiPzhj7lUjEQuj1Ek-28">
          <mxGeometry y="120" width="180" height="30" as="geometry" />
        </mxCell>
        <mxCell id="3CrtiPzhj7lUjEQuj1Ek-39" value="" style="shape=partialRectangle;connectable=0;fillColor=none;top=0;left=0;bottom=0;right=0;editable=1;overflow=hidden;" vertex="1" parent="3CrtiPzhj7lUjEQuj1Ek-38">
          <mxGeometry width="30" height="30" as="geometry" />
        </mxCell>
        <mxCell id="3CrtiPzhj7lUjEQuj1Ek-40" value="Row 3" style="shape=partialRectangle;connectable=0;fillColor=none;top=0;left=0;bottom=0;right=0;align=left;spacingLeft=6;overflow=hidden;" vertex="1" parent="3CrtiPzhj7lUjEQuj1Ek-38">
          <mxGeometry x="30" width="150" height="30" as="geometry" />
        </mxCell>
        <mxCell id="3CrtiPzhj7lUjEQuj1Ek-41" value="药房入库单" style="shape=table;startSize=30;container=1;collapsible=1;childLayout=tableLayout;fixedRows=1;rowLines=0;fontStyle=1;align=center;resizeLast=1;" vertex="1" parent="3CrtiPzhj7lUjEQuj1Ek-1">
          <mxGeometry x="80" y="440" width="180" height="160" as="geometry" />
        </mxCell>
        <mxCell id="3CrtiPzhj7lUjEQuj1Ek-42" value="" style="shape=partialRectangle;collapsible=0;dropTarget=0;pointerEvents=0;fillColor=none;top=0;left=0;bottom=1;right=0;points=[[0,0.5],[1,0.5]];portConstraint=eastwest;" vertex="1" parent="3CrtiPzhj7lUjEQuj1Ek-41">
          <mxGeometry y="30" width="180" height="30" as="geometry" />
        </mxCell>
        <mxCell id="3CrtiPzhj7lUjEQuj1Ek-43" value="PK" style="shape=partialRectangle;connectable=0;fillColor=none;top=0;left=0;bottom=0;right=0;fontStyle=1;overflow=hidden;" vertex="1" parent="3CrtiPzhj7lUjEQuj1Ek-42">
          <mxGeometry width="30" height="30" as="geometry" />
        </mxCell>
        <mxCell id="3CrtiPzhj7lUjEQuj1Ek-44" value="药房入库单ID" style="shape=partialRectangle;connectable=0;fillColor=none;top=0;left=0;bottom=0;right=0;align=left;spacingLeft=6;fontStyle=5;overflow=hidden;" vertex="1" parent="3CrtiPzhj7lUjEQuj1Ek-42">
          <mxGeometry x="30" width="150" height="30" as="geometry" />
        </mxCell>
        <mxCell id="3CrtiPzhj7lUjEQuj1Ek-45" value="" style="shape=partialRectangle;collapsible=0;dropTarget=0;pointerEvents=0;fillColor=none;top=0;left=0;bottom=0;right=0;points=[[0,0.5],[1,0.5]];portConstraint=eastwest;" vertex="1" parent="3CrtiPzhj7lUjEQuj1Ek-41">
          <mxGeometry y="60" width="180" height="30" as="geometry" />
        </mxCell>
        <mxCell id="3CrtiPzhj7lUjEQuj1Ek-46" value="" style="shape=partialRectangle;connectable=0;fillColor=none;top=0;left=0;bottom=0;right=0;editable=1;overflow=hidden;" vertex="1" parent="3CrtiPzhj7lUjEQuj1Ek-45">
          <mxGeometry width="30" height="30" as="geometry" />
        </mxCell>
        <mxCell id="3CrtiPzhj7lUjEQuj1Ek-47" value="Row 1" style="shape=partialRectangle;connectable=0;fillColor=none;top=0;left=0;bottom=0;right=0;align=left;spacingLeft=6;overflow=hidden;" vertex="1" parent="3CrtiPzhj7lUjEQuj1Ek-45">
          <mxGeometry x="30" width="150" height="30" as="geometry" />
        </mxCell>
        <mxCell id="3CrtiPzhj7lUjEQuj1Ek-48" value="" style="shape=partialRectangle;collapsible=0;dropTarget=0;pointerEvents=0;fillColor=none;top=0;left=0;bottom=0;right=0;points=[[0,0.5],[1,0.5]];portConstraint=eastwest;" vertex="1" parent="3CrtiPzhj7lUjEQuj1Ek-41">
          <mxGeometry y="90" width="180" height="30" as="geometry" />
        </mxCell>
        <mxCell id="3CrtiPzhj7lUjEQuj1Ek-49" value="" style="shape=partialRectangle;connectable=0;fillColor=none;top=0;left=0;bottom=0;right=0;editable=1;overflow=hidden;" vertex="1" parent="3CrtiPzhj7lUjEQuj1Ek-48">
          <mxGeometry width="30" height="30" as="geometry" />
        </mxCell>
        <mxCell id="3CrtiPzhj7lUjEQuj1Ek-50" value="Row 2" style="shape=partialRectangle;connectable=0;fillColor=none;top=0;left=0;bottom=0;right=0;align=left;spacingLeft=6;overflow=hidden;" vertex="1" parent="3CrtiPzhj7lUjEQuj1Ek-48">
          <mxGeometry x="30" width="150" height="30" as="geometry" />
        </mxCell>
        <mxCell id="3CrtiPzhj7lUjEQuj1Ek-51" value="" style="shape=partialRectangle;collapsible=0;dropTarget=0;pointerEvents=0;fillColor=none;top=0;left=0;bottom=0;right=0;points=[[0,0.5],[1,0.5]];portConstraint=eastwest;" vertex="1" parent="3CrtiPzhj7lUjEQuj1Ek-41">
          <mxGeometry y="120" width="180" height="30" as="geometry" />
        </mxCell>
        <mxCell id="3CrtiPzhj7lUjEQuj1Ek-52" value="" style="shape=partialRectangle;connectable=0;fillColor=none;top=0;left=0;bottom=0;right=0;editable=1;overflow=hidden;" vertex="1" parent="3CrtiPzhj7lUjEQuj1Ek-51">
          <mxGeometry width="30" height="30" as="geometry" />
        </mxCell>
        <mxCell id="3CrtiPzhj7lUjEQuj1Ek-53" value="Row 3" style="shape=partialRectangle;connectable=0;fillColor=none;top=0;left=0;bottom=0;right=0;align=left;spacingLeft=6;overflow=hidden;" vertex="1" parent="3CrtiPzhj7lUjEQuj1Ek-51">
          <mxGeometry x="30" width="150" height="30" as="geometry" />
        </mxCell>
        <mxCell id="3CrtiPzhj7lUjEQuj1Ek-54" value="库房盘点单" style="shape=table;startSize=30;container=1;collapsible=1;childLayout=tableLayout;fixedRows=1;rowLines=0;fontStyle=1;align=center;resizeLast=1;" vertex="1" parent="3CrtiPzhj7lUjEQuj1Ek-1">
          <mxGeometry x="400" y="440" width="180" height="160" as="geometry" />
        </mxCell>
        <mxCell id="3CrtiPzhj7lUjEQuj1Ek-55" value="" style="shape=partialRectangle;collapsible=0;dropTarget=0;pointerEvents=0;fillColor=none;top=0;left=0;bottom=1;right=0;points=[[0,0.5],[1,0.5]];portConstraint=eastwest;" vertex="1" parent="3CrtiPzhj7lUjEQuj1Ek-54">
          <mxGeometry y="30" width="180" height="30" as="geometry" />
        </mxCell>
        <mxCell id="3CrtiPzhj7lUjEQuj1Ek-56" value="PK" style="shape=partialRectangle;connectable=0;fillColor=none;top=0;left=0;bottom=0;right=0;fontStyle=1;overflow=hidden;" vertex="1" parent="3CrtiPzhj7lUjEQuj1Ek-55">
          <mxGeometry width="30" height="30" as="geometry" />
        </mxCell>
        <mxCell id="3CrtiPzhj7lUjEQuj1Ek-57" value="库房盘点单ID" style="shape=partialRectangle;connectable=0;fillColor=none;top=0;left=0;bottom=0;right=0;align=left;spacingLeft=6;fontStyle=5;overflow=hidden;" vertex="1" parent="3CrtiPzhj7lUjEQuj1Ek-55">
          <mxGeometry x="30" width="150" height="30" as="geometry" />
        </mxCell>
        <mxCell id="3CrtiPzhj7lUjEQuj1Ek-58" value="" style="shape=partialRectangle;collapsible=0;dropTarget=0;pointerEvents=0;fillColor=none;top=0;left=0;bottom=0;right=0;points=[[0,0.5],[1,0.5]];portConstraint=eastwest;" vertex="1" parent="3CrtiPzhj7lUjEQuj1Ek-54">
          <mxGeometry y="60" width="180" height="30" as="geometry" />
        </mxCell>
        <mxCell id="3CrtiPzhj7lUjEQuj1Ek-59" value="" style="shape=partialRectangle;connectable=0;fillColor=none;top=0;left=0;bottom=0;right=0;editable=1;overflow=hidden;" vertex="1" parent="3CrtiPzhj7lUjEQuj1Ek-58">
          <mxGeometry width="30" height="30" as="geometry" />
        </mxCell>
        <mxCell id="3CrtiPzhj7lUjEQuj1Ek-60" value="Row 1" style="shape=partialRectangle;connectable=0;fillColor=none;top=0;left=0;bottom=0;right=0;align=left;spacingLeft=6;overflow=hidden;" vertex="1" parent="3CrtiPzhj7lUjEQuj1Ek-58">
          <mxGeometry x="30" width="150" height="30" as="geometry" />
        </mxCell>
        <mxCell id="3CrtiPzhj7lUjEQuj1Ek-61" value="" style="shape=partialRectangle;collapsible=0;dropTarget=0;pointerEvents=0;fillColor=none;top=0;left=0;bottom=0;right=0;points=[[0,0.5],[1,0.5]];portConstraint=eastwest;" vertex="1" parent="3CrtiPzhj7lUjEQuj1Ek-54">
          <mxGeometry y="90" width="180" height="30" as="geometry" />
        </mxCell>
        <mxCell id="3CrtiPzhj7lUjEQuj1Ek-62" value="" style="shape=partialRectangle;connectable=0;fillColor=none;top=0;left=0;bottom=0;right=0;editable=1;overflow=hidden;" vertex="1" parent="3CrtiPzhj7lUjEQuj1Ek-61">
          <mxGeometry width="30" height="30" as="geometry" />
        </mxCell>
        <mxCell id="3CrtiPzhj7lUjEQuj1Ek-63" value="Row 2" style="shape=partialRectangle;connectable=0;fillColor=none;top=0;left=0;bottom=0;right=0;align=left;spacingLeft=6;overflow=hidden;" vertex="1" parent="3CrtiPzhj7lUjEQuj1Ek-61">
          <mxGeometry x="30" width="150" height="30" as="geometry" />
        </mxCell>
        <mxCell id="3CrtiPzhj7lUjEQuj1Ek-64" value="" style="shape=partialRectangle;collapsible=0;dropTarget=0;pointerEvents=0;fillColor=none;top=0;left=0;bottom=0;right=0;points=[[0,0.5],[1,0.5]];portConstraint=eastwest;" vertex="1" parent="3CrtiPzhj7lUjEQuj1Ek-54">
          <mxGeometry y="120" width="180" height="30" as="geometry" />
        </mxCell>
        <mxCell id="3CrtiPzhj7lUjEQuj1Ek-65" value="" style="shape=partialRectangle;connectable=0;fillColor=none;top=0;left=0;bottom=0;right=0;editable=1;overflow=hidden;" vertex="1" parent="3CrtiPzhj7lUjEQuj1Ek-64">
          <mxGeometry width="30" height="30" as="geometry" />
        </mxCell>
        <mxCell id="3CrtiPzhj7lUjEQuj1Ek-66" value="Row 3" style="shape=partialRectangle;connectable=0;fillColor=none;top=0;left=0;bottom=0;right=0;align=left;spacingLeft=6;overflow=hidden;" vertex="1" parent="3CrtiPzhj7lUjEQuj1Ek-64">
          <mxGeometry x="30" width="150" height="30" as="geometry" />
        </mxCell>
        <mxCell id="3CrtiPzhj7lUjEQuj1Ek-67" value="库房出库单" style="shape=table;startSize=30;container=1;collapsible=1;childLayout=tableLayout;fixedRows=1;rowLines=0;fontStyle=1;align=center;resizeLast=1;" vertex="1" parent="3CrtiPzhj7lUjEQuj1Ek-1">
          <mxGeometry x="720" y="440" width="180" height="160" as="geometry" />
        </mxCell>
        <mxCell id="3CrtiPzhj7lUjEQuj1Ek-68" value="" style="shape=partialRectangle;collapsible=0;dropTarget=0;pointerEvents=0;fillColor=none;top=0;left=0;bottom=1;right=0;points=[[0,0.5],[1,0.5]];portConstraint=eastwest;" vertex="1" parent="3CrtiPzhj7lUjEQuj1Ek-67">
          <mxGeometry y="30" width="180" height="30" as="geometry" />
        </mxCell>
        <mxCell id="3CrtiPzhj7lUjEQuj1Ek-69" value="PK" style="shape=partialRectangle;connectable=0;fillColor=none;top=0;left=0;bottom=0;right=0;fontStyle=1;overflow=hidden;" vertex="1" parent="3CrtiPzhj7lUjEQuj1Ek-68">
          <mxGeometry width="30" height="30" as="geometry" />
        </mxCell>
        <mxCell id="3CrtiPzhj7lUjEQuj1Ek-70" value="库房出库单ID" style="shape=partialRectangle;connectable=0;fillColor=none;top=0;left=0;bottom=0;right=0;align=left;spacingLeft=6;fontStyle=5;overflow=hidden;" vertex="1" parent="3CrtiPzhj7lUjEQuj1Ek-68">
          <mxGeometry x="30" width="150" height="30" as="geometry" />
        </mxCell>
        <mxCell id="3CrtiPzhj7lUjEQuj1Ek-71" value="" style="shape=partialRectangle;collapsible=0;dropTarget=0;pointerEvents=0;fillColor=none;top=0;left=0;bottom=0;right=0;points=[[0,0.5],[1,0.5]];portConstraint=eastwest;" vertex="1" parent="3CrtiPzhj7lUjEQuj1Ek-67">
          <mxGeometry y="60" width="180" height="30" as="geometry" />
        </mxCell>
        <mxCell id="3CrtiPzhj7lUjEQuj1Ek-72" value="" style="shape=partialRectangle;connectable=0;fillColor=none;top=0;left=0;bottom=0;right=0;editable=1;overflow=hidden;" vertex="1" parent="3CrtiPzhj7lUjEQuj1Ek-71">
          <mxGeometry width="30" height="30" as="geometry" />
        </mxCell>
        <mxCell id="3CrtiPzhj7lUjEQuj1Ek-73" value="Row 1" style="shape=partialRectangle;connectable=0;fillColor=none;top=0;left=0;bottom=0;right=0;align=left;spacingLeft=6;overflow=hidden;" vertex="1" parent="3CrtiPzhj7lUjEQuj1Ek-71">
          <mxGeometry x="30" width="150" height="30" as="geometry" />
        </mxCell>
        <mxCell id="3CrtiPzhj7lUjEQuj1Ek-74" value="" style="shape=partialRectangle;collapsible=0;dropTarget=0;pointerEvents=0;fillColor=none;top=0;left=0;bottom=0;right=0;points=[[0,0.5],[1,0.5]];portConstraint=eastwest;" vertex="1" parent="3CrtiPzhj7lUjEQuj1Ek-67">
          <mxGeometry y="90" width="180" height="30" as="geometry" />
        </mxCell>
        <mxCell id="3CrtiPzhj7lUjEQuj1Ek-75" value="" style="shape=partialRectangle;connectable=0;fillColor=none;top=0;left=0;bottom=0;right=0;editable=1;overflow=hidden;" vertex="1" parent="3CrtiPzhj7lUjEQuj1Ek-74">
          <mxGeometry width="30" height="30" as="geometry" />
        </mxCell>
        <mxCell id="3CrtiPzhj7lUjEQuj1Ek-76" value="Row 2" style="shape=partialRectangle;connectable=0;fillColor=none;top=0;left=0;bottom=0;right=0;align=left;spacingLeft=6;overflow=hidden;" vertex="1" parent="3CrtiPzhj7lUjEQuj1Ek-74">
          <mxGeometry x="30" width="150" height="30" as="geometry" />
        </mxCell>
        <mxCell id="3CrtiPzhj7lUjEQuj1Ek-77" value="" style="shape=partialRectangle;collapsible=0;dropTarget=0;pointerEvents=0;fillColor=none;top=0;left=0;bottom=0;right=0;points=[[0,0.5],[1,0.5]];portConstraint=eastwest;" vertex="1" parent="3CrtiPzhj7lUjEQuj1Ek-67">
          <mxGeometry y="120" width="180" height="30" as="geometry" />
        </mxCell>
        <mxCell id="3CrtiPzhj7lUjEQuj1Ek-78" value="" style="shape=partialRectangle;connectable=0;fillColor=none;top=0;left=0;bottom=0;right=0;editable=1;overflow=hidden;" vertex="1" parent="3CrtiPzhj7lUjEQuj1Ek-77">
          <mxGeometry width="30" height="30" as="geometry" />
        </mxCell>
        <mxCell id="3CrtiPzhj7lUjEQuj1Ek-79" value="Row 3" style="shape=partialRectangle;connectable=0;fillColor=none;top=0;left=0;bottom=0;right=0;align=left;spacingLeft=6;overflow=hidden;" vertex="1" parent="3CrtiPzhj7lUjEQuj1Ek-77">
          <mxGeometry x="30" width="150" height="30" as="geometry" />
        </mxCell>
        <mxCell id="3CrtiPzhj7lUjEQuj1Ek-80" value="" style="edgeStyle=elbowEdgeStyle;fontSize=12;html=1;endArrow=ERmandOne;exitX=1;exitY=0.5;exitDx=0;exitDy=0;" edge="1" parent="3CrtiPzhj7lUjEQuj1Ek-1" source="3CrtiPzhj7lUjEQuj1Ek-42">
          <mxGeometry width="100" height="100" relative="1" as="geometry">
            <mxPoint x="300" y="410" as="sourcePoint" />
            <mxPoint x="400" y="310" as="targetPoint" />
          </mxGeometry>
        </mxCell>
        <mxCell id="3CrtiPzhj7lUjEQuj1Ek-81" value="" style="edgeStyle=elbowEdgeStyle;fontSize=12;html=1;endArrow=ERmandOne;exitX=0;exitY=0.5;exitDx=0;exitDy=0;" edge="1" parent="3CrtiPzhj7lUjEQuj1Ek-1" source="3CrtiPzhj7lUjEQuj1Ek-55">
          <mxGeometry width="100" height="100" relative="1" as="geometry">
            <mxPoint x="270" y="605" as="sourcePoint" />
            <mxPoint x="400" y="310" as="targetPoint" />
            <Array as="points">
              <mxPoint x="360" y="440" />
            </Array>
          </mxGeometry>
        </mxCell>
        <mxCell id="3CrtiPzhj7lUjEQuj1Ek-82" value="" style="edgeStyle=elbowEdgeStyle;fontSize=12;html=1;endArrow=ERmandOne;exitX=0;exitY=0.5;exitDx=0;exitDy=0;" edge="1" parent="3CrtiPzhj7lUjEQuj1Ek-1" source="3CrtiPzhj7lUjEQuj1Ek-68">
          <mxGeometry width="100" height="100" relative="1" as="geometry">
            <mxPoint x="410" y="575" as="sourcePoint" />
            <mxPoint x="580" y="310" as="targetPoint" />
            <Array as="points">
              <mxPoint x="680" y="440" />
            </Array>
          </mxGeometry>
        </mxCell>
        <mxCell id="cAExvCCKccBQ8vEhT8DT-0" value="" style="edgeStyle=orthogonalEdgeStyle;fontSize=12;html=1;endArrow=ERmandOne;exitX=1;exitY=0.5;exitDx=0;exitDy=0;entryX=0;entryY=0.5;entryDx=0;entryDy=0;elbow=vertical;" edge="1" parent="3CrtiPzhj7lUjEQuj1Ek-1" source="3CrtiPzhj7lUjEQuj1Ek-3" target="3CrtiPzhj7lUjEQuj1Ek-35">
          <mxGeometry width="100" height="100" relative="1" as="geometry">
            <mxPoint x="270" y="575" as="sourcePoint" />
            <mxPoint x="410" y="320" as="targetPoint" />
          </mxGeometry>
        </mxCell>
        <mxCell id="cAExvCCKccBQ8vEhT8DT-1" value="" style="edgeStyle=elbowEdgeStyle;fontSize=12;html=1;endArrow=ERmandOne;" edge="1" parent="3CrtiPzhj7lUjEQuj1Ek-1" source="3CrtiPzhj7lUjEQuj1Ek-16" target="3CrtiPzhj7lUjEQuj1Ek-32">
          <mxGeometry width="100" height="100" relative="1" as="geometry">
            <mxPoint x="730" y="575" as="sourcePoint" />
            <mxPoint x="590" y="320" as="targetPoint" />
            <Array as="points">
              <mxPoint x="690" y="450" />
            </Array>
          </mxGeometry>
        </mxCell>
      </root>
    </mxGraphModel>
  </diagram>
</mxfile>
